<svg width="48" height="48" viewBox="0 0 48 48" fill="none" xmlns="http://www.w3.org/2000/svg">
<path d="M0 10C0 4.47715 4.47715 0 10 0H38C43.5229 0 48 4.47715 48 10V38C48 43.5229 43.5228 48 38 48H10C4.47715 48 0 43.5228 0 38V10Z" fill="white" fill-opacity="0.9"/>
<path d="M23.9998 13.1667C23.9998 13.1667 16.4165 22.375 16.4165 27.25C16.4165 29.2612 17.2155 31.1901 18.6376 32.6122C20.0598 34.0344 21.9886 34.8333 23.9998 34.8333C26.0111 34.8333 27.9399 34.0344 29.3621 32.6122C30.7842 31.1901 31.5832 29.2612 31.5832 27.25C31.5832 22.375 23.9998 13.1667 23.9998 13.1667Z" fill="#2563EB"/>
<path d="M20.75 28.875C20.75 30.6701 22.2049 32.125 24 32.125" stroke="#93C5FD" stroke-width="1.5" stroke-linecap="round"/>
</svg>
