<svg width="42" height="54" viewBox="0 0 42 54" fill="none" xmlns="http://www.w3.org/2000/svg">
<path d="M0 15.7969C0 10.274 4.47715 5.79688 10 5.79688H32C37.5228 5.79688 42 10.274 42 15.7969V37.7969C42 43.3197 37.5228 47.7969 32 47.7969H10C4.47715 47.7969 0 43.3197 0 37.7969V15.7969Z" fill="white"/>
<path d="M21 16.7969C21 16.7969 14 23.7969 14 28.7969C14 32.6629 17.134 35.7969 21 35.7969C24.866 35.7969 28 32.6629 28 28.7969C28 23.7969 21 16.7969 21 16.7969Z" fill="#2563EB"/>
<path opacity="0.8" d="M21 35.7969C19 35.7969 17.5 34.2969 17.5 32.2969C17.5 30.2969 21 24.7969 21 24.7969C21 24.7969 24.5 30.2969 24.5 32.2969C24.5 34.2969 23 35.7969 21 35.7969Z" fill="#DCFCE7"/>
</svg>
