<svg width="32" height="39" viewBox="0 0 32 39" fill="none" xmlns="http://www.w3.org/2000/svg">
<path d="M0 11.25C0 6.83172 3.58172 3.25 8 3.25H24C28.4183 3.25 32 6.83172 32 11.25V27.25C32 31.6683 28.4183 35.25 24 35.25H8C3.58172 35.25 0 31.6683 0 27.25V11.25Z" fill="#F4F6F9"/>
<path d="M20 13.25H12C10.8954 13.25 10 14.1454 10 15.25V23.25C10 24.3546 10.8954 25.25 12 25.25H20C21.1046 25.25 22 24.3546 22 23.25V15.25C22 14.1454 21.1046 13.25 20 13.25Z" stroke="#1E5FA8" stroke-width="1.5"/>
<path d="M13 19.25H19M16 16.25V22.25" stroke="#1E5FA8" stroke-width="1.5" stroke-linecap="round"/>
</svg>
