<svg width="32" height="39" viewBox="0 0 32 39" fill="none" xmlns="http://www.w3.org/2000/svg">
<path d="M0 11.25C0 6.83172 3.58172 3.25 8 3.25H24C28.4183 3.25 32 6.83172 32 11.25V27.25C32 31.6683 28.4183 35.25 24 35.25H8C3.58172 35.25 0 31.6683 0 27.25V11.25Z" fill="#F4F6F9"/>
<path d="M16 24.75C19.0376 24.75 21.5 22.2876 21.5 19.25C21.5 16.2124 19.0376 13.75 16 13.75C12.9624 13.75 10.5 16.2124 10.5 19.25C10.5 22.2876 12.9624 24.75 16 24.75Z" stroke="#1E5FA8" stroke-width="1.5"/>
<path d="M16 16.75V19.25L18 20.75" stroke="#1E5FA8" stroke-width="1.5" stroke-linecap="round" stroke-linejoin="round"/>
</svg>
