<svg width="16" height="20" viewBox="0 0 16 20" fill="none" xmlns="http://www.w3.org/2000/svg">
<g clip-path="url(#clip0_19_793)">
<path d="M8 16.25C11.5899 16.25 14.5 13.3399 14.5 9.75C14.5 6.16015 11.5899 3.25 8 3.25C4.41015 3.25 1.5 6.16015 1.5 9.75C1.5 13.3399 4.41015 16.25 8 16.25Z" stroke="#D97706" stroke-width="1.5"/>
<path d="M8 6.75V10.75" stroke="#D97706" stroke-width="1.5" stroke-linecap="round"/>
<path d="M8 13.5C8.41421 13.5 8.75 13.1642 8.75 12.75C8.75 12.3358 8.41421 12 8 12C7.58579 12 7.25 12.3358 7.25 12.75C7.25 13.1642 7.58579 13.5 8 13.5Z" fill="#D97706"/>
</g>
<defs>
<clipPath id="clip0_19_793">
<rect width="16" height="16" fill="white" transform="translate(0 1.75)"/>
</clipPath>
</defs>
</svg>
